<svg width="32" height="32" viewBox="0 0 32 32" fill="none" xmlns="http://www.w3.org/2000/svg">
<path d="M3.45637 19.3501C3.45637 20.572 3.72445 21.51 4.0751 22.0775C4.53472 22.8209 5.2202 23.1365 5.91909 23.1365C6.82038 23.1365 7.64499 22.9127 9.23404 20.7149C10.5074 18.9533 12.0072 16.4807 13.0165 14.9305L14.7258 12.3043C15.9131 10.4804 17.2875 8.45287 18.8632 7.07856C20.15 5.95677 21.5373 5.33362 22.9339 5.33362C25.2787 5.33362 27.5121 6.69239 29.2213 9.24076C31.092 12.0316 32 15.5471 32 19.1748C32 21.3315 31.575 22.9161 30.8515 24.168C30.1528 25.3787 28.7907 26.5884 26.4994 26.5884V23.1359C28.4613 23.1359 28.9508 21.3331 28.9508 19.2699C28.9508 16.3299 28.2654 13.0672 26.7553 10.7358C25.6837 9.08219 24.295 8.07179 22.767 8.07179C21.1144 8.07179 19.7846 9.31837 18.2901 11.5404C17.4955 12.7211 16.6799 14.1599 15.764 15.7835L14.7557 17.5696C12.7306 21.1612 12.2175 21.9789 11.2048 23.3284C9.43001 25.6918 7.91428 26.5879 5.91909 26.5879C3.55207 26.5879 2.05538 25.5629 1.12835 24.0183C0.371694 22.7598 0 21.1083 0 19.2266L3.45637 19.3501Z" fill="#0081FB"/>
<path d="M2.72534 9.4842C4.30997 7.04159 6.59683 5.33337 9.21973 5.33337C10.7387 5.33337 12.249 5.78295 13.8256 7.07054C15.5505 8.47796 17.3888 10.7969 19.6824 14.617L20.5047 15.9876C22.49 19.2949 23.6194 20.9964 24.2805 21.7988C25.1306 22.8291 25.726 23.1364 26.4994 23.1364C28.4614 23.1364 28.9509 21.3335 28.9509 19.2704L32 19.1747C32 21.3314 31.575 22.916 30.8516 24.1679C30.1528 25.3786 28.7907 26.5883 26.4994 26.5883C25.075 26.5883 23.8131 26.2789 22.4176 24.9624C21.3453 23.952 20.0907 22.1571 19.1259 20.5435L16.2559 15.7495C14.8161 13.3436 13.4947 11.5498 12.7307 10.7373C11.9082 9.86367 10.851 8.80877 9.16397 8.80877C7.79864 8.80877 6.63905 9.76689 5.66874 11.2325L2.72534 9.4842Z" fill="url(#paint0_linear_13984_29678)"/>
<path d="M9.16394 8.80877C7.7986 8.80877 6.63902 9.76689 5.6687 11.2325C4.29653 13.3034 3.45704 16.3881 3.45704 19.3504C3.45704 20.5723 3.72512 21.5103 4.07577 22.0778L1.12835 24.0186C0.371694 22.7601 0 21.1086 0 19.2269C0 15.805 0.939221 12.2385 2.72531 9.4842C4.30993 7.04159 6.5968 5.33337 9.2197 5.33337L9.16394 8.80877Z" fill="url(#paint1_linear_13984_29678)"/>
<defs>
<linearGradient id="paint0_linear_13984_29678" x1="6.93689" y1="15.41" x2="28.9705" y2="16.5228" gradientUnits="userSpaceOnUse">
<stop stop-color="#0064E1"/>
<stop offset="0.4" stop-color="#0064E1"/>
<stop offset="0.83" stop-color="#0073EE"/>
<stop offset="1" stop-color="#0082FB"/>
</linearGradient>
<linearGradient id="paint1_linear_13984_29678" x1="4.60978" y1="20.8015" x2="4.60978" y2="12.678" gradientUnits="userSpaceOnUse">
<stop stop-color="#0082FB"/>
<stop offset="1" stop-color="#0064E0"/>
</linearGradient>
</defs>
</svg>
