<svg width="96" height="96" viewBox="0 0 96 96" fill="none" xmlns="http://www.w3.org/2000/svg">
<path d="M67.666 25.5323C67.666 28.9457 59.2393 31.7723 47.7193 31.7723C36.1993 31.7723 27.7726 28.999 27.7726 25.5323C27.7726 22.0657 36.1993 18.5457 47.7193 18.5457C59.2393 18.5457 67.666 22.119 67.666 25.5323Z" stroke="url(#paint0_linear_13902_4347)" stroke-width="1.4" stroke-miterlimit="10" stroke-linejoin="round"/>
<path d="M27.7193 37.9058C27.7193 41.3191 36.146 44.1458 47.666 44.1458H53.3193" stroke="url(#paint1_linear_13902_4347)" stroke-width="1.4" stroke-miterlimit="10" stroke-linejoin="round"/>
<path d="M52.5726 56.3589C40.146 56.6256 27.7726 53.5856 27.7726 50.1189" stroke="url(#paint2_linear_13902_4347)" stroke-width="1.4" stroke-miterlimit="10" stroke-linejoin="round"/>
<path d="M27.7193 25.1589V61.6923" stroke="url(#paint3_linear_13902_4347)" stroke-width="1.4" stroke-miterlimit="10" stroke-linejoin="round"/>
<path d="M67.666 25.5325V34.1191" stroke="url(#paint4_linear_13902_4347)" stroke-width="1.4" stroke-miterlimit="10" stroke-linejoin="round"/>
<path d="M51.9326 67.7725C37.906 68.5725 27.7193 64.9991 27.7193 61.5325" stroke="url(#paint5_linear_13902_4347)" stroke-width="1.4" stroke-miterlimit="10" stroke-linejoin="round"/>
<path d="M57.7993 86.3857V39.2923C57.7993 38.5457 58.386 37.959 59.1326 37.959H80.8927L92.466 49.5323V86.3857C92.466 87.1323 91.8793 87.719 91.1327 87.719H59.186C58.386 87.719 57.7993 87.1323 57.7993 86.3857Z" stroke="url(#paint6_linear_13902_4347)" stroke-width="1.4" stroke-miterlimit="10" stroke-linejoin="round"/>
<path d="M80.8926 49.5323H92.466L80.8926 37.959V49.5323Z" stroke="url(#paint7_linear_13902_4347)" stroke-width="1.4" stroke-miterlimit="10" stroke-linejoin="round"/>
<path d="M62.9193 58.8657H87.3992" stroke="url(#paint8_linear_13902_4347)" stroke-width="1.4" stroke-miterlimit="10" stroke-linejoin="round"/>
<path d="M62.9193 65.6392H87.3992" stroke="url(#paint9_linear_13902_4347)" stroke-width="1.4" stroke-miterlimit="10" stroke-linejoin="round"/>
<path d="M62.9193 72.4656H86.7593" stroke="url(#paint10_linear_13902_4347)" stroke-width="1.4" stroke-miterlimit="10" stroke-linejoin="round"/>
<path d="M62.9193 79.239H71.2926" stroke="url(#paint11_linear_13902_4347)" stroke-width="1.4" stroke-miterlimit="10" stroke-linejoin="round"/>
<path d="M62.9193 52.0923H76.7326" stroke="url(#paint12_linear_13902_4347)" stroke-width="1.4" stroke-miterlimit="10" stroke-linejoin="round"/>
<path d="M14.8323 21.5601C14.4457 21.5601 14.1321 21.2465 14.1321 20.8599L14.1321 17.2866C14.1321 16.9 14.4457 16.5864 14.8323 16.5864L18.4055 16.5864C18.7921 16.5864 19.1057 16.9 19.1057 17.2866L19.1057 20.8599C19.1057 21.2465 18.7921 21.5601 18.4055 21.5601L14.8323 21.5601Z" stroke="url(#paint13_linear_13902_4347)" stroke-width="1.4" stroke-miterlimit="10" stroke-linejoin="round"/>
<path d="M30.7695 21.2031C30.3829 21.2031 30.0693 20.8895 30.0693 20.5029L30.0693 16.9297C30.0693 16.5431 30.3829 16.2295 30.7695 16.2295L34.3427 16.2295C34.7293 16.2295 35.0429 16.5431 35.0429 16.9297L35.0429 20.5029C35.0429 20.8895 34.7293 21.2031 34.3427 21.2031L30.7695 21.2031Z" stroke="url(#paint14_linear_13902_4347)" stroke-width="1.4" stroke-miterlimit="10" stroke-linejoin="round"/>
<path d="M10.9933 31.2346C10.6067 31.2346 10.2931 30.921 10.2931 30.5344L10.2931 26.9612C10.2931 26.5746 10.6067 26.261 10.9933 26.261L14.5665 26.261C14.9531 26.261 15.2667 26.5746 15.2667 26.9612L15.2667 30.5344C15.2667 30.921 14.9531 31.2346 14.5665 31.2346L10.9933 31.2346Z" stroke="url(#paint15_linear_13902_4347)" stroke-width="1.4" stroke-miterlimit="10" stroke-linejoin="round"/>
<path d="M20.7139 31.2346C20.3273 31.2346 20.0137 30.921 20.0137 30.5344L20.0137 26.9612C20.0137 26.5746 20.3273 26.261 20.7139 26.261L24.2872 26.261C24.6738 26.261 24.9874 26.5746 24.9874 26.9612L24.9874 30.5344C24.9874 30.921 24.6738 31.2346 24.2872 31.2346L20.7139 31.2346Z" stroke="url(#paint16_linear_13902_4347)" stroke-width="1.4" stroke-miterlimit="10" stroke-linejoin="round"/>
<path d="M7.68158 42.8706C7.29498 42.8706 6.98138 42.557 6.98138 42.1704L6.98138 38.5972C6.98138 38.2106 7.29498 37.897 7.68158 37.897L11.2548 37.897C11.6414 37.897 11.955 38.2106 11.955 38.5972L11.955 42.1704C11.955 42.557 11.6414 42.8706 11.2548 42.8706L7.68158 42.8706Z" stroke="url(#paint17_linear_13902_4347)" stroke-width="1.4" stroke-miterlimit="10" stroke-linejoin="round"/>
<path d="M16.3748 38.5095C15.9882 38.5095 15.6746 38.1959 15.6746 37.8093L15.6746 34.2361C15.6746 33.8495 15.9882 33.5359 16.3748 33.5359L19.9481 33.5359C20.3347 33.5359 20.6483 33.8495 20.6483 34.2361L20.6483 37.8093C20.6483 38.1959 20.3347 38.5095 19.9481 38.5095L16.3748 38.5095Z" stroke="url(#paint18_linear_13902_4347)" stroke-width="1.4" stroke-miterlimit="10" stroke-linejoin="round"/>
<path d="M23.5317 17.7014C23.1451 17.7014 22.8315 17.3878 22.8315 17.0012L22.8315 13.428C22.8315 13.0414 23.1451 12.7278 23.5317 12.7278L27.105 12.7278C27.4916 12.7278 27.8052 13.0414 27.8052 13.428L27.8052 17.0012C27.8052 17.3878 27.4916 17.7014 27.105 17.7014L23.5317 17.7014Z" stroke="url(#paint19_linear_13902_4347)" stroke-width="1.4" stroke-miterlimit="10" stroke-linejoin="round"/>
<path d="M3.73346 12.8066C3.34686 12.8066 3.03326 12.493 3.03326 12.1064L3.03326 8.5332C3.03326 8.1466 3.34686 7.83301 3.73346 7.83301L7.3067 7.83301C7.6933 7.83301 8.0069 8.1466 8.0069 8.5332L8.0069 12.1064C8.0069 12.493 7.6933 12.8066 7.3067 12.8066L3.73346 12.8066Z" stroke="url(#paint20_linear_13902_4347)" stroke-width="1.4" stroke-miterlimit="10" stroke-linejoin="round"/>
<defs>
<linearGradient id="paint0_linear_13902_4347" x1="47.7193" y1="18.5457" x2="47.7193" y2="31.7723" gradientUnits="userSpaceOnUse">
<stop stop-color="#95A1B0"/>
<stop offset="1" stop-color="#848C95"/>
</linearGradient>
<linearGradient id="paint1_linear_13902_4347" x1="40.5193" y1="37.9058" x2="40.5193" y2="44.1458" gradientUnits="userSpaceOnUse">
<stop stop-color="#95A1B0"/>
<stop offset="1" stop-color="#848C95"/>
</linearGradient>
<linearGradient id="paint2_linear_13902_4347" x1="40.1726" y1="50.1189" x2="40.1726" y2="56.3752" gradientUnits="userSpaceOnUse">
<stop stop-color="#95A1B0"/>
<stop offset="1" stop-color="#848C95"/>
</linearGradient>
<linearGradient id="paint3_linear_13902_4347" x1="28.2193" y1="25.1589" x2="28.2193" y2="61.6923" gradientUnits="userSpaceOnUse">
<stop stop-color="#95A1B0"/>
<stop offset="1" stop-color="#848C95"/>
</linearGradient>
<linearGradient id="paint4_linear_13902_4347" x1="68.166" y1="25.5325" x2="68.166" y2="34.1191" gradientUnits="userSpaceOnUse">
<stop stop-color="#95A1B0"/>
<stop offset="1" stop-color="#848C95"/>
</linearGradient>
<linearGradient id="paint5_linear_13902_4347" x1="39.826" y1="61.5325" x2="39.826" y2="67.8859" gradientUnits="userSpaceOnUse">
<stop stop-color="#95A1B0"/>
<stop offset="1" stop-color="#848C95"/>
</linearGradient>
<linearGradient id="paint6_linear_13902_4347" x1="75.1327" y1="37.959" x2="75.1327" y2="87.719" gradientUnits="userSpaceOnUse">
<stop stop-color="#95A1B0"/>
<stop offset="1" stop-color="#848C95"/>
</linearGradient>
<linearGradient id="paint7_linear_13902_4347" x1="86.6793" y1="37.959" x2="86.6793" y2="49.5323" gradientUnits="userSpaceOnUse">
<stop stop-color="#95A1B0"/>
<stop offset="1" stop-color="#848C95"/>
</linearGradient>
<linearGradient id="paint8_linear_13902_4347" x1="75.1592" y1="59.8657" x2="75.1592" y2="58.8657" gradientUnits="userSpaceOnUse">
<stop stop-color="#7638FA"/>
<stop offset="1" stop-color="#5928C1"/>
</linearGradient>
<linearGradient id="paint9_linear_13902_4347" x1="75.1592" y1="66.6392" x2="75.1592" y2="65.6392" gradientUnits="userSpaceOnUse">
<stop stop-color="#7638FA"/>
<stop offset="1" stop-color="#5928C1"/>
</linearGradient>
<linearGradient id="paint10_linear_13902_4347" x1="74.8393" y1="73.4656" x2="74.8393" y2="72.4656" gradientUnits="userSpaceOnUse">
<stop stop-color="#7638FA"/>
<stop offset="1" stop-color="#5928C1"/>
</linearGradient>
<linearGradient id="paint11_linear_13902_4347" x1="67.1059" y1="80.239" x2="67.1059" y2="79.239" gradientUnits="userSpaceOnUse">
<stop stop-color="#7638FA"/>
<stop offset="1" stop-color="#5928C1"/>
</linearGradient>
<linearGradient id="paint12_linear_13902_4347" x1="69.8259" y1="53.0923" x2="69.8259" y2="52.0923" gradientUnits="userSpaceOnUse">
<stop stop-color="#7638FA"/>
<stop offset="1" stop-color="#5928C1"/>
</linearGradient>
<linearGradient id="paint13_linear_13902_4347" x1="16.6189" y1="17.2865" x2="16.6189" y2="20.8599" gradientUnits="userSpaceOnUse">
<stop stop-color="#7638FA"/>
<stop offset="1" stop-color="#5928C1"/>
</linearGradient>
<linearGradient id="paint14_linear_13902_4347" x1="32.556" y1="16.9296" x2="32.556" y2="20.5029" gradientUnits="userSpaceOnUse">
<stop stop-color="#7638FA"/>
<stop offset="1" stop-color="#5928C1"/>
</linearGradient>
<linearGradient id="paint15_linear_13902_4347" x1="12.7799" y1="26.9611" x2="12.7799" y2="30.5344" gradientUnits="userSpaceOnUse">
<stop stop-color="#7638FA"/>
<stop offset="1" stop-color="#5928C1"/>
</linearGradient>
<linearGradient id="paint16_linear_13902_4347" x1="22.5005" y1="26.9611" x2="22.5005" y2="30.5344" gradientUnits="userSpaceOnUse">
<stop stop-color="#7638FA"/>
<stop offset="1" stop-color="#5928C1"/>
</linearGradient>
<linearGradient id="paint17_linear_13902_4347" x1="9.46816" y1="38.5971" x2="9.46816" y2="42.1704" gradientUnits="userSpaceOnUse">
<stop stop-color="#7638FA"/>
<stop offset="1" stop-color="#5928C1"/>
</linearGradient>
<linearGradient id="paint18_linear_13902_4347" x1="18.1614" y1="34.236" x2="18.1614" y2="37.8093" gradientUnits="userSpaceOnUse">
<stop stop-color="#7638FA"/>
<stop offset="1" stop-color="#5928C1"/>
</linearGradient>
<linearGradient id="paint19_linear_13902_4347" x1="25.3183" y1="13.4279" x2="25.3183" y2="17.0012" gradientUnits="userSpaceOnUse">
<stop stop-color="#7638FA"/>
<stop offset="1" stop-color="#5928C1"/>
</linearGradient>
<linearGradient id="paint20_linear_13902_4347" x1="5.52003" y1="8.53311" x2="5.52003" y2="12.1064" gradientUnits="userSpaceOnUse">
<stop stop-color="#7638FA"/>
<stop offset="1" stop-color="#5928C1"/>
</linearGradient>
</defs>
</svg>
